<svg width="21" height="33" viewBox="0 0 21 33" fill="none" xmlns="http://www.w3.org/2000/svg">
<path d="M19.0464 8.63076C19.6594 8.81727 20.6166 8.37579 20.7329 7.43234C20.8039 6.85742 20.6073 6.29605 19.9867 6.11687L17.5144 5.90937C16.6533 5.67928 15.7318 6.1174 15.4586 6.88846L13.1722 12.4217L12.0077 12.6665L11.5844 2.60744C11.5938 1.79796 10.8708 1.12237 9.97325 1.09866L7.55307 0.600008C6.90167 0.595456 6.51984 1.07371 6.38729 1.63958C6.16934 2.56837 6.92499 3.2569 7.57251 3.25241L10.2131 3.37851L10.6384 12.9548L8.74966 13.3522L5.5406 5.58546C5.26735 4.8144 4.34657 4.37622 3.48478 4.60637L1.01317 4.81381C0.393231 4.99358 0.196635 5.55437 0.266984 6.12928C0.383181 7.07279 1.34041 7.51427 1.95346 7.3277L4.50547 6.7036L7.38912 13.6382L6.99093 13.7219C6.1386 13.7219 5.42815 14.2595 5.24856 14.9785C4.40943 15.1803 1.58536 16.2719 2.02256 21.7407C2.29515 25.1461 3.85413 27.0761 5.20206 28.1231V30.49C5.20206 31.3792 6.00289 32.1 6.99093 32.1H14.6439C15.632 32.1 16.4328 31.3798 16.4328 30.49V30.2215H18.0552C18.7141 30.2215 19.2473 29.741 19.2473 29.1486V23.0829C19.2473 22.4899 18.7134 22.0099 18.0552 22.0099H16.4328V18.15H16.917C17.5753 18.15 18.1092 17.6689 18.1092 17.0771V14.3941C18.1092 13.8011 17.5746 13.3212 16.917 13.3212H16.37C16.1822 12.6671 15.5515 12.1781 14.7821 12.1244L16.4937 8.00837L19.0464 8.63076ZM5.20331 25.6968C4.53187 24.777 3.95463 23.4684 3.80703 21.6255C3.54574 18.358 4.54882 17.1788 5.20331 16.7576V25.6968Z" fill="#2C2C2C"/>
</svg>
